<?xml version="1.0" encoding="UTF-8" standalone="no"?><!DOCTYPE svg PUBLIC "-//W3C//DTD SVG 1.1//EN" "http://www.w3.org/Graphics/SVG/1.1/DTD/svg11.dtd"><svg width="100%" height="100%" viewBox="0 0 420 420" version="1.1" xmlns="http://www.w3.org/2000/svg" xmlns:xlink="http://www.w3.org/1999/xlink" xml:space="preserve" xmlns:serif="http://www.serif.com/" style="fill-rule:evenodd;clip-rule:evenodd;stroke-linecap:round;stroke-linejoin:round;stroke-miterlimit:1.5;"><path d="M210,31.078l154.951,89.461l-0,178.922l-154.951,89.461l-154.951,-89.461l0,-178.922l154.951,-89.461Z" style="fill:url(#_Radial1);stroke:#fff;stroke-width:20px;"/><path d="M233.664,115.837c2.717,1.512 4.064,4.708 3.248,7.71l-18.026,66.086l65.77,-0c3.723,0 6.786,3.064 6.786,6.787c0,1.719 -0.653,3.376 -1.827,4.633l-95.017,101.803c-1.283,1.378 -3.083,2.162 -4.966,2.162c-3.723,-0 -6.787,-3.064 -6.787,-6.787c-0,-0.608 0.081,-1.213 0.243,-1.8l18.026,-66.077l-65.77,0c-3.723,-0 -6.786,-3.064 -6.786,-6.787c-0,-1.719 0.653,-3.376 1.827,-4.633l95.017,-101.803c2.122,-2.271 5.546,-2.807 8.262,-1.294Z" style="fill:#fff;"/><defs><radialGradient id="_Radial1" cx="0" cy="0" r="1" gradientUnits="userSpaceOnUse" gradientTransform="matrix(1.17442e-14,-191.797,191.797,1.17442e-14,210,222.875)"><stop offset="0" style="stop-color:#ff9a21;stop-opacity:1"/><stop offset="1" style="stop-color:#fd371d;stop-opacity:1"/></radialGradient></defs></svg>