<?xml version="1.0" encoding="UTF-8" standalone="no"?><!DOCTYPE svg PUBLIC "-//W3C//DTD SVG 1.1//EN" "http://www.w3.org/Graphics/SVG/1.1/DTD/svg11.dtd"><svg width="100%" height="100%" viewBox="0 0 500 500" version="1.1" xmlns="http://www.w3.org/2000/svg" xmlns:xlink="http://www.w3.org/1999/xlink" xml:space="preserve" xmlns:serif="http://www.serif.com/" style="fill-rule:evenodd;clip-rule:evenodd;stroke-linejoin:round;stroke-miterlimit:2;"><g><path d="M250,11.438l206.601,119.281l0,238.562l-206.601,119.281l-206.601,-119.281l-0,-238.562l206.601,-119.281Z" style="fill:url(#_Radial1);"/><path d="M281.552,124.449c3.623,2.017 5.418,6.278 4.331,10.28l-24.035,88.115l87.693,-0c4.964,0 9.049,4.085 9.049,9.049c-0,2.293 -0.872,4.502 -2.437,6.178l-126.689,135.737c-1.711,1.838 -4.111,2.882 -6.622,2.882c-4.964,0 -9.049,-4.085 -9.049,-9.049c0,-0.811 0.109,-1.617 0.324,-2.399l24.035,-88.103l-87.693,-0c-4.964,-0 -9.049,-4.085 -9.049,-9.049c0,-2.293 0.872,-4.502 2.437,-6.178l126.689,-135.738c2.83,-3.027 7.395,-3.743 11.016,-1.725Z" style="fill:#fff;"/></g><defs><radialGradient id="_Radial1" cx="0" cy="0" r="1" gradientUnits="userSpaceOnUse" gradientTransform="matrix(7.24422e-14,-255.729,255.729,7.24422e-14,250,267.167)"><stop offset="0" style="stop-color:#ff8b00;stop-opacity:1"/><stop offset="1" style="stop-color:#fd371d;stop-opacity:1"/></radialGradient></defs></svg>